<svg id="icon-select-car-1" xmlns="http://www.w3.org/2000/svg" xmlns:xlink="http://www.w3.org/1999/xlink" viewBox="0 0 150 51"><style>.st0{clip-path:url(#SVGID_2_);}</style><defs><path id="SVGID_1_" d="M0 0h150v51H0z"/></defs><clipPath id="SVGID_2_"><use xlink:href="#SVGID_1_" overflow="visible"/></clipPath><path class="st0" d="M146.7 13.9l.6-2.4s-.1-.1-.2-.1c-1.3-.5-5.5.4-5.5.4-1.2-.5-10.4-.9-10.4-.9C113.1 2.3 100.4.3 100.4.3S89.5-.1 75.7.3c-13.8.2-27.2 11.5-28.2 12s-1.2-.5-1.2-.5c-31.6 0-44.7 10-44.7 10s.7 4.5-.8 6.1c-1.5 1.5.8 8.6.8 8.6l-1.6.9v2.3c2.9 1.7 7.4 2.7 12.1 3.3-.7-1.6-1.1-3.3-1.1-5.1 0-7.2 5.9-13.1 13.1-13.1 7.2 0 13.1 5.9 13.1 13.1 0 2-.5 3.9-1.3 5.6 9.2-.2 34.1-.6 44.4-.9 5.7-.2 15.2 0 24.1.3-.6-1.6-.9-3.2-.9-5 0-8 6.5-14.5 14.6-14.5 8 0 14.6 6.5 14.6 14.5 0 1.5-.2 3-.7 4.4 4.8-1.6 10.9-4 10.9-4 9.5-7.1 4.8-18.3 4.8-18.7-.2-.5-1-5.7-1-5.7zm0 0"/><path d="M24.1 48.4c3.8 0 7.1-2 9-5 1-1.7 1.7-3.6 1.7-5.7C34.8 31.8 30 27 24.1 27s-10.7 4.8-10.7 10.7c0 2 .6 3.8 1.5 5.4 1.9 3.2 5.3 5.3 9.2 5.3zm0 0M118 49.9c4.8 0 9-2.8 10.9-6.9.8-1.6 1.2-3.4 1.2-5.3 0-6.7-5.4-12.2-12.2-12.2-6.7 0-12.2 5.5-12.2 12.2 0 1.8.4 3.5 1.2 5.1 2 4.2 6.2 7.1 11.1 7.1zm0 0"/></svg>
