<svg id="icon-select-car-6" xmlns="http://www.w3.org/2000/svg" xmlns:xlink="http://www.w3.org/1999/xlink" viewBox="0 0 150 56"><style>.st0{clip-path:url(#SVGID_2_);}</style><defs><path id="SVGID_1_" d="M0 0h150v56H0z"/></defs><clipPath id="SVGID_2_"><use xlink:href="#SVGID_1_" overflow="visible"/></clipPath><path class="st0" d="M144.2 21.3c-.1-2.6-10.2-4.6-25.8-6.8-15.6-2.3-9.1-11.1-29-13.2-19.9-2.1-36.3-1.6-37.6 1-1.4 2.7-1.8 12-1.8 12H6.2C2.8 15.3 4.3 29 4.3 29c0 .1 0 .2.1.2h-.3c-2.3 0-4.2 1.9-4.2 4.2 0 2.3 1.9 4.1 4.2 4.1h5c1.3 0 5.3-.6 8.6-1.5 1.5.3 2.9.7 4.3 1 2.1-4.5 6.7-7.7 12-7.7 7.3 0 13.3 6 13.3 13.3h63.1c0-7.3 6-13.3 13.3-13.3 6.9 0 12.6 5.3 13.2 12 3.2-.7 6.7-1.5 8.2-2.1 2.9-1.2 2.5-11.7 2.5-11.7s-3.3-3.5-3.4-6.2zm0 0"/><path d="M45 42.7c0-6-4.9-10.9-10.9-10.9-4.2 0-7.9 2.5-9.7 6-.8 1.5-1.2 3.1-1.2 4.9 0 6 4.9 10.9 10.9 10.9S45 48.7 45 42.7zm0 0M134.6 42.7c0-.3-.1-.5-.1-.8-.4-5.7-5.1-10.1-10.8-10.1-6 0-10.9 4.9-10.9 10.9s4.9 10.9 10.9 10.9 10.9-4.9 10.9-10.9zm0 0"/></svg>
