<svg id="icon-select-car-2" xmlns="http://www.w3.org/2000/svg" xmlns:xlink="http://www.w3.org/1999/xlink" viewBox="0 0 150 54"><style>.st0{clip-path:url(#SVGID_2_);}</style><defs><path id="SVGID_1_" d="M0 0h150v54H0z"/></defs><clipPath id="SVGID_2_"><use xlink:href="#SVGID_1_" overflow="visible"/></clipPath><path class="st0" d="M145.6 39.4c2.4-3.1 1.8-10.3 1.4-13.1-.4-2.8-2.7-1.5-2.6-3.4.1-1.9.3-7.4-.7-8.1-1-.7-1.9-1.1-1.9-1.1-1.4-2.9-10.9-9.9-10.9-9.9V2.7C115.6 1 81.3-1.4 71.6 1c-9.8 2.3-32.2 14.4-32.2 14.4-23.4.4-34.7 8-34.7 8S5 24.6 2.4 27C-.3 29.4 0 34.1 0 34.1l1.6 7.4c.8.7 11.5 4.2 14.6 3.8-.3-1.2-.5-2.4-.5-3.7 0-7.9 6.5-14.4 14.4-14.4 8 0 14.4 6.5 14.4 14.4v1.1c9.4 0 40.5.1 62.6.1 0-.4-.1-.7-.1-1.1 0-7.9 6.5-14.4 14.4-14.4s14.4 6.5 14.4 14.4v.4c5.9-1 9.8-2.7 9.8-2.7zm0 0"/><path d="M30.2 29.6c-6.6 0-12 5.4-12 12 0 1 .2 2 .4 2.9 1.3 5.2 6 9.1 11.6 9.1 6.3 0 11.4-4.8 11.9-10.9 0-.4.1-.7.1-1.1 0-6.6-5.4-12-12-12zm0 0M121.5 29.6c-6.6 0-12 5.4-12 12 0 .4.1.8.1 1.1.6 6.1 5.6 10.9 11.9 10.9 6.4 0 11.5-5 11.9-11.2 0-.3.1-.5.1-.8 0-6.6-5.4-12-12-12zm0 0"/></svg>
