<svg id="icon-contacts-3" xmlns="http://www.w3.org/2000/svg" viewBox="0 0 280 280"><style>.st0{fill:#CFCFCF;}</style><path class="st0" d="M11.7 280h256.7c6.1 0 11-4.6 11.6-10.5V116c-.3-3.3-2-6.2-4.5-8.1L147.5 2.6c-2-1.6-4.3-2.5-6.7-2.6h-1.3c-2.4.1-4.8 1-6.7 2.6L4.6 107.9C1.8 110 0 113.3 0 117.1v151.2c0 6.5 5.2 11.7 11.7 11.7zm33.2-23.4l59.7-47.8 27.9 23c4.3 3.5 10.5 3.5 14.8 0l27.9-23 59.8 47.8H44.9zm53.5-83.3v-49.6h83.4v49.6h-.1L140 207.6l-41.6-34.3zm158.3 70.8l-62.9-50.4 62.9-51.8v102.2zM140 26.7l110 90.4-45 37v-42c0-6.5-5.2-11.7-11.7-11.7H86.7c-6.5 0-11.7 5.2-11.7 11.7v42l-45-37 110-90.4zM23.3 141.9l62.9 51.8-62.9 50.4V141.9z"/></svg>
