<svg id="icon-select-car-5" xmlns="http://www.w3.org/2000/svg" xmlns:xlink="http://www.w3.org/1999/xlink" viewBox="0 0 150 66"><style>.st0{clip-path:url(#SVGID_2_);}</style><path d="M11.6 54.1c1.9 6 7.5 10.4 14.2 10.4 6.6 0 12.2-4.3 14.1-10.2l.3-1.2c.1-.4.2-.8.2-1.2.1-.7.2-1.5.2-2.2 0-8.2-6.7-14.8-14.9-14.8s-14.9 6.6-14.9 14.8c0 .7.1 1.4.2 2 .1.4.1.8.2 1.2.2.4.3.8.4 1.2zm0 0"/><defs><path id="SVGID_1_" d="M0 0h150v66H0z"/></defs><clipPath id="SVGID_2_"><use xlink:href="#SVGID_1_" overflow="visible"/></clipPath><path class="st0" d="M102.6 52.8c1.4 6.7 7.4 11.7 14.5 11.7 7.8 0 14.1-5.9 14.8-13.5 0-.4.1-.8.1-1.2v-.1-1.1c-.6-7.7-7-13.8-14.8-13.8-8.2 0-14.9 6.7-14.9 14.9v.7c0 .4 0 .8.1 1.2 0 .4.1.8.2 1.2zm0 0"/><path class="st0" d="M141.7 6.6c-1.7.2-3.2 1-4.1 2.3-.4.5-.7 1.1-.9 1.7-.2.6-.2 1.2-.2 1.8l.6 6.5c-.5-.5-.9-.8-.9-.8 0-9-3.2-15-3.2-15l2.4-1.7-1.6-1.4H96.5c-17 0-36.7 3.8-39.1 6.3C55 8.8 43.3 20.1 43.3 20.1L9 24.9S4 32.1 3 34c-1.1 2-1.8 2.1-1.8 2.1C-3 46.3 5.5 50.2 8.7 51.2c-.1-.5-.1-1.1-.1-1.6 0-9.5 7.7-17.3 17.3-17.3S43.2 40 43.2 49.6c0 .7-.1 1.5-.2 2.2 18-.2 39.4-.7 57-1.4v-.8c0-9.5 7.8-17.3 17.3-17.3 9 0 16.4 6.9 17.2 15.7 6.2-2 6.8-9.3 6.1-15.7.4.2.8.5 1.3.6.4.1.8.2 1.3.3h1.2c3.1-.3 5.5-2.9 5.2-5.7l-1.5-16.3c-.5-2.8-3.2-4.9-6.4-4.6zm0 0"/></svg>
