<svg xmlns="http://www.w3.org/2000/svg" xmlns:xlink="http://www.w3.org/1999/xlink" id="icon-auto-info-4" viewBox="0 0 130 150" width="130" height="150"><style id="style3">.st0{clip-path:url(#SVGID_2_);}</style><g id="g5" fill="#c63d23"><g id="g7" transform="scale(1.00288 1.00334)"><defs id="defs9"><path id="SVGID_1_" d="M0 0h130v150H0z"/></defs><clipPath id="SVGID_2_"><use xlink:href="#SVGID_1_" id="use13" width="100%" height="100%" overflow="visible"/></clipPath><path class="st0" d="M124.6 103.1c-11.4 0-20.6-13.1-20.6-29.3 0-16.2 9.3-29.3 20.6-29.3 1.8 0 3.5-1 4.4-2.6.9-1.6.8-3.5-.1-5.1l-13.5-22.2c-.8-1.3-2.2-2.2-3.7-2.4-1.5-.2-3 .3-4.1 1.4-4.7 4.7-12.4 4.7-17.1 0C88.2 11.3 87 8.3 87 5c0-2.8-2.2-5-5-5H47.7c-2.8 0-5 2.3-5 5 0 3.2-1.3 6.3-3.5 8.6-4.7 4.7-12.4 4.7-17.1 0-1.1-1.1-2.6-1.6-4.1-1.4-1.5.2-2.9 1.1-3.7 2.4L.7 36.9c-.9 1.6-1 3.5-.1 5.1.9 1.6 2.6 2.6 4.4 2.6 11.4 0 20.6 13.1 20.6 29.3 0 16.2-9.2 29.2-20.6 29.2-1.7 0-3.3.9-4.2 2.3-.9 1.4-1 3.3-.3 4.8L9 128.8c.9 2 3.1 3.2 5.3 2.9.4-.1 35.7-5.1 45.7 15 .8 1.7 2.5 2.7 4.4 2.8 1.9 0 3.6-1 4.4-2.7 10.8-20.5 46.2-16.5 46.5-16.5 2.1.3 4.1-.8 5.1-2.7l8.5-17.2c.8-1.6.7-3.4-.2-4.9-.8-1.5-2.4-2.4-4.1-2.4zm-56.3 13.6c0 1.9-1.6 3.5-3.5 3.5s-3.5-1.6-3.5-3.5v-2.3c0-1.9 1.6-3.5 3.5-3.5s3.5 1.6 3.5 3.5v2.3zm0-16.8c0 1.9-1.6 3.5-3.5 3.5s-3.5-1.6-3.5-3.5v-4.2c0-1.9 1.6-3.5 3.5-3.5s3.5 1.6 3.5 3.5v4.2zm0-18.9c0 1.9-1.6 3.5-3.5 3.5s-3.5-1.6-3.5-3.5v-4.2c0-1.9 1.6-3.5 3.5-3.5s3.5 1.6 3.5 3.5V81zm0-18.8c0 1.9-1.6 3.5-3.5 3.5s-3.5-1.6-3.5-3.5V58c0-1.9 1.6-3.5 3.5-3.5s3.5 1.6 3.5 3.5v4.2zm0-18.8c0 1.9-1.6 3.5-3.5 3.5s-3.5-1.6-3.5-3.5v-4.2c0-1.9 1.6-3.5 3.5-3.5s3.5 1.6 3.5 3.5v4.2zm0-18.8c0 1.9-1.6 3.5-3.5 3.5s-3.5-1.6-3.5-3.5v-2.3c0-1.9 1.6-3.5 3.5-3.5s3.5 1.6 3.5 3.5v2.3zm0 0" id="path15" clip-path="url(#SVGID_2_)"/></g></g></svg>
