<svg xmlns="http://www.w3.org/2000/svg" id="icon-about-4" viewBox="0 0 280.20013 280" width="280.2" height="280"><g fill="#fff"><path d="M267.49 64.146H207.85c8.206 7.305 15.21 15.91 20.615 25.518h38.928c7.006 0 12.71-5.704 12.71-12.71.1-7.104-5.604-12.808-12.61-12.808zm0 0M267.49 96.27h-35.524c3.802 8.004 6.604 16.51 8.306 25.517h27.22c7.004 0 12.708-5.704 12.708-12.71 0-7.204-5.704-12.808-12.71-12.808zm0 0M267.49 32.023h-94.366c-5.504 0-10.108 3.502-11.91 8.306 14.11 3 27.02 9.005 38.33 17.11h67.847c7.006 0 12.71-5.703 12.71-12.708.1-7.005-5.604-12.71-12.61-12.71zm0 0M173.124 25.418h94.267c7.006 0 12.71-5.704 12.71-12.71C280.1 5.705 274.396 0 267.39 0h-94.266c-7.005 0-12.71 5.704-12.71 12.71 0 6.904 5.705 12.708 12.71 12.708zm0 0M267.49 128.292h-26.218c.4 3.802.7 7.705.7 11.708 0 4.703-.4 9.207-1 13.81h26.52c7.004 0 12.708-5.704 12.708-12.71 0-7.104-5.704-12.808-12.71-12.808zm0 0M267.49 160.415h-27.52c-1.8 9.006-4.902 17.512-9.005 25.518h36.526c7.006 0 12.71-5.704 12.71-12.71 0-7.104-5.704-12.808-12.71-12.808zm0 0M267.49 192.538h-40.228c-5.804 9.606-13.11 18.213-21.715 25.518h61.944c7.006 0 12.71-5.704 12.71-12.71 0-7.104-5.704-12.808-12.71-12.808zm0 0M12.71 151.708h26.218c-.4-3.802-.7-7.705-.7-11.708 0-4.703.4-9.307 1-13.81h-26.52C5.705 126.19 0 131.894 0 138.9c0 7.104 5.704 12.808 12.71 12.808zm0 0M12.71 183.73h35.524c-3.802-8.004-6.704-16.51-8.305-25.517H12.71c-7.006.1-12.71 5.804-12.71 12.81 0 7.004 5.704 12.708 12.71 12.708zm0 0M12.71 119.585h27.52c1.8-9.006 4.902-17.512 9.005-25.518H12.71C5.703 94.067 0 99.77 0 106.777c0 7.104 5.704 12.808 12.71 12.808zm0 0M12.71 87.462h40.228c5.804-9.606 13.11-18.213 21.715-25.518H12.71C5.703 61.944 0 67.648 0 74.754 0 81.757 5.704 87.46 12.71 87.46zm0 0M12.71 215.854H72.25c-8.206-7.305-15.21-15.91-20.615-25.518H12.71c-7.006 0-12.71 5.704-12.71 12.71 0 7.104 5.704 12.808 12.71 12.808zm0 0M12.71 247.977h94.366c5.504 0 10.108-3.502 11.91-8.306-14.11-3-27.12-9.005-38.328-17.11h-67.95C5.705 222.56 0 228.262 0 235.267s5.704 12.71 12.71 12.71zm0 0M107.076 254.582H12.71c-7.006 0-12.71 5.704-12.71 12.71C0 274.295 5.704 280 12.71 280h94.366c7.005 0 12.71-5.704 12.71-12.71 0-7.004-5.705-12.708-12.71-12.708zm0 0M140.1 50.836c-49.135 0-89.164 40.03-89.164 89.164 0 49.135 40.03 89.164 89.164 89.164 49.135 0 89.164-39.93 89.164-89.164 0-49.135-40.03-89.164-89.164-89.164zm0 152.81c-35.125 0-63.645-28.52-63.645-63.646 0-35.125 28.62-63.645 63.645-63.645 35.025 0 63.646 28.62 63.646 63.645 0 35.125-28.52 63.645-63.646 63.645zm0 0"/><path d="M143.803 131.394v-22.016c12.81.2 12.71 12.61 20.214 12.61 3.903 0 7.305-2.703 7.305-7.206 0-11.308-18.513-17.012-27.52-17.312v-6.205c0-1.9-1.5-3.903-3.502-3.903-2 0-3.402 2.002-3.402 3.903v6.205c-14.51.5-27.52 8.606-27.52 24.317 0 12.81 10.408 20.415 27.52 23.517v24.217c-19.314-.8-9.207-16.81-22.116-16.81-4.403 0-7.205 2.7-7.205 7.304 0 9.207 9.707 20.915 29.32 21.316v7.205c0 2 1.502 4.003 3.403 4.003 2.002 0 3.503-2.002 3.503-4.003v-7.205c17.212-1 28.82-8.907 28.82-24.418 0-17.713-13.51-22.316-28.82-25.518zm-6.905-1.3c-8.706-1.702-13.01-5.105-13.01-10.91 0-5.002 5.104-9.606 13.01-9.806v20.715zm6.905 39.527v-22.915c6.304 1.4 14.31 3.702 14.31 11.608-.1 7.606-7.405 10.808-14.31 11.308zm0 0"/></g></svg>
