<svg xmlns="http://www.w3.org/2000/svg" xmlns:xlink="http://www.w3.org/1999/xlink" id="icon-auto-info-3" viewBox="0 0 120 150" width="11" height="14"><style id="style3">.st0{clip-path:url(#SVGID_2_);}</style><g id="g5" fill="#c63d23"><g id="g7" transform="scale(.9975 1.00402)"><defs id="defs9"><path id="SVGID_1_" d="M0 0h120.3v150H0z"/></defs><clipPath id="SVGID_2_"><use xlink:href="#SVGID_1_" id="use13" width="100%" height="100%" overflow="visible"/></clipPath><path class="st0" d="M117.1 3.8c-2.3-2.4-5.4-3.8-8.8-3.8h-9.4C92 0 85.3 5.6 84.1 12.4l-.6 3.4c-.6 3.4.2 6.6 2.3 9.1 2.1 2.4 5.1 3.8 8.5 3.8h12.2c1.7 0 3.3-.3 4.8-.9l-1.3 11c-1.2-.5-2.6-.8-4-.8H92.1c-5.9 0-11.8 4.7-13 10.5l-12.3 57.8-57.9-4.2c-3.1-.2-5.7.8-7.4 2.9-1.5 1.9-2 4.6-1.2 7.4L7.1 139c1.5 5.7 7.5 10.4 13.4 10.4h74c6 0 11.4-4.9 12-10.8l9.5-89.5c.1-.5.1-1 0-1.5l3.3-27.8c.5-1.2.7-2.5.8-3.8l.2-3.1c.2-3.4-.9-6.7-3.2-9.1zm0 0" id="path15" clip-path="url(#SVGID_2_)"/></g></g></svg>
