<svg id="icon-contacts-1" xmlns="http://www.w3.org/2000/svg" viewBox="0 0 280 280"><style>.st0{fill:none;} .st1{fill:#CFCFCF;}</style><path class="st0" d="M146.3 121.3c18 0 32.7-14.7 32.7-32.7 0-18-14.7-32.6-32.7-32.6-18 0-32.7 14.6-32.7 32.6.1 18.1 14.7 32.7 32.7 32.7zM0 275.3v4.7h4.7c-1.2 0-2.4-.5-3.3-1.4-.9-.9-1.4-2.1-1.4-3.3z"/><path class="st0" d="M145.5 0c23.9 0 46.4 9.3 63.3 26.2 31.3 31.3 35.2 90.1 8.3 125.9l-71.6 103.4L73.8 152C47 116.3 50.9 57.5 82.2 26.2 99.1 9.3 121.6 0 145.5 0H0v246.2c0-1.2.5-2.4 1.4-3.3l18.1-18.1c.9-.9 1.8-1.6 2.8-2.3.4-.3.8-.5 1.2-.7l.4-.3c.5-.3 1-.6 1.6-.8.5-.2 1-.4 1.5-.5l.6-.2c.4-.1.8-.3 1.3-.4 1.3-.3 2.5-.4 3.7-.4h70c2.6 0 4.7 2.1 4.7 4.6 0 2.6-2.1 4.7-4.7 4.7h-70c-.6 0-1.2.1-1.8.2l-1.8.5c-.2.1-.3.2-.5.3l-.9.5c-.7.4-1.2.8-1.6 1.3L8 249.5c-.9.9-2.1 1.4-3.3 1.4-1.2 0-2.4-.5-3.3-1.4-.9-.9-1.4-2.1-1.4-3.3v29.1c0-1.2.5-2.4 1.4-3.3l3.3-3.3c1.8-1.8 4.8-1.8 6.6 0 1.8 1.8 1.8 4.8 0 6.6L8 278.6c-.9.9-2.1 1.4-3.3 1.4h28c-1.4 0-2.7-.6-3.6-1.7-1.6-2-1.3-4.9.7-6.6l7.1-5.7h210.5c.6 0 1.2-.1 1.8-.2l1.3-.4c.2 0 .3-.1.5-.1.2-.1.4-.2.5-.3l.9-.5c.7-.4 1.2-.8 1.6-1.3l18.1-18.1c1.8-1.8 4.8-1.8 6.6 0 1.8 1.8 1.8 4.8 0 6.6l-18.1 18.1c-.9.9-1.8 1.6-2.8 2.3l-1.2.6-.5.3c-.5.3-1 .6-1.6.8-.5.2-1.1.4-1.6.5l-.6.2c-.5.1-.9.3-1.4.4-1.2.3-2.4.4-3.6.4H40.1l-4.5 3.6c-.9.7-1.9 1-2.9 1H280V0H145.5zM29.3 257.3l-6 6c-.9.9-2.1 1.4-3.3 1.4-1.2 0-2.4-.5-3.3-1.4-1.8-1.8-1.8-4.8 0-6.6l6-6c1.8-1.8 4.8-1.8 6.6 0 1.8 1.8 1.8 4.8 0 6.6zm19.4-5.3h-8.5c-2.6 0-4.7-2.1-4.7-4.7s2.1-4.6 4.7-4.6h8.5c2.6 0 4.6 2.1 4.6 4.6.1 2.6-2 4.7-4.6 4.7zm25.5 0h-8.5c-2.6 0-4.7-2.1-4.7-4.7s2.1-4.6 4.7-4.6h8.5c2.6 0 4.7 2.1 4.7 4.6 0 2.6-2.1 4.7-4.7 4.7zm25.5 0h-8.5c-2.6 0-4.7-2.1-4.7-4.7s2.1-4.6 4.7-4.6h8.5c2.6 0 4.6 2.1 4.6 4.6 0 2.6-2 4.7-4.6 4.7zm21.6 0h-4.7c-2.6 0-4.7-2.1-4.7-4.7s2.1-4.6 4.7-4.6h4.7c2.6 0 4.7 2.1 4.7 4.6 0 2.6-2.1 4.7-4.7 4.7zm51.4 0H168c-2.6 0-4.7-2.1-4.7-4.7s2.1-4.6 4.7-4.6h4.7c2.6 0 4.7 2.1 4.7 4.6-.1 2.6-2.1 4.7-4.7 4.7zm29.9 0h-10c-2.6 0-4.6-2.1-4.6-4.7s2.1-4.6 4.6-4.6h10c2.6 0 4.6 2.1 4.6 4.6 0 2.6-2.1 4.7-4.6 4.7zm29.8 0h-10c-2.6 0-4.7-2.1-4.7-4.7s2.1-4.6 4.7-4.6h10c2.6 0 4.7 2.1 4.7 4.6 0 2.6-2.1 4.7-4.7 4.7zm-45.7-23.3c-2.6 0-4.7-2.1-4.7-4.7s2.1-4.6 4.7-4.6h53l12.6-12.6c1.8-1.8 4.8-1.8 6.6 0 1.8 1.8 1.8 4.8 0 6.6l-15.4 15.4h-56.8zm74.5 11.3l-7 7c-.9.9-2.1 1.4-3.3 1.4-1.2 0-2.4-.5-3.3-1.4-1.8-1.8-1.8-4.8 0-6.6l7-7c1.8-1.8 4.8-1.8 6.6 0 1.9 1.8 1.9 4.8 0 6.6zm17.4-17.4l-3.3 3.3c-.9.9-2.1 1.4-3.3 1.4-1.2 0-2.4-.5-3.3-1.4-1.8-1.8-1.8-4.8 0-6.6l3.3-3.3c1.8-1.8 4.8-1.8 6.6 0 1.9 1.9 1.9 4.8 0 6.6z"/><path class="st1" d="M11.3 275.3c1.8-1.8 1.8-4.8 0-6.6-1.8-1.8-4.8-1.8-6.6 0L1.4 272c-.9.9-1.4 2.1-1.4 3.3s.5 2.4 1.4 3.3c.9.9 2.1 1.4 3.3 1.4 1.2 0 2.4-.5 3.3-1.4l3.3-3.3zM74.2 242.7h-8.5c-2.6 0-4.7 2.1-4.7 4.6 0 2.6 2.1 4.7 4.7 4.7h8.5c2.6 0 4.7-2.1 4.7-4.7s-2.1-4.6-4.7-4.6zM99.7 242.7h-8.5c-2.6 0-4.7 2.1-4.7 4.6 0 2.6 2.1 4.7 4.7 4.7h8.5c2.6 0 4.6-2.1 4.6-4.7s-2-4.6-4.6-4.6zM48.7 242.7h-8.5c-2.6 0-4.7 2.1-4.7 4.6 0 2.6 2.1 4.7 4.7 4.7h8.5c2.6 0 4.6-2.1 4.6-4.7.1-2.6-2-4.6-4.6-4.6zM22.7 250.7l-6 6c-1.8 1.8-1.8 4.8 0 6.6.9.9 2.1 1.4 3.3 1.4 1.2 0 2.4-.5 3.3-1.4l6-6c1.8-1.8 1.8-4.8 0-6.6-1.8-1.8-4.8-1.8-6.6 0zM121.3 242.7h-4.7c-2.6 0-4.7 2.1-4.7 4.6 0 2.6 2.1 4.7 4.7 4.7h4.7c2.6 0 4.7-2.1 4.7-4.7s-2.1-4.6-4.7-4.6z"/><path class="st1" d="M4.7 250.9c1.2 0 2.4-.5 3.3-1.4l18.1-18.1c.4-.5.9-.8 1.6-1.3l.9-.5c.2-.1.3-.2.5-.3l1.8-.5c.6-.1 1.2-.2 1.8-.2h70c2.6 0 4.7-2.1 4.7-4.7s-2.1-4.6-4.7-4.6h-70c-1.2 0-2.4.1-3.7.4-.5.1-.9.2-1.3.4l-.6.2c-.5.1-1 .3-1.5.5s-1.1.5-1.6.8l-.4.3c-.4.2-.8.4-1.2.7-1 .7-2 1.5-2.8 2.3l-18.2 18c-.9.9-1.4 2.1-1.4 3.3 0 1.2.5 2.4 1.4 3.3.9.9 2.1 1.4 3.3 1.4zM272 216l-3.3 3.3c-1.8 1.8-1.8 4.8 0 6.6.9.9 2.1 1.4 3.3 1.4 1.2 0 2.4-.5 3.3-1.4l3.3-3.3c1.8-1.8 1.8-4.8 0-6.6-1.8-1.8-4.7-1.8-6.6 0zM254.6 233.4l-7 7c-1.8 1.8-1.8 4.8 0 6.6.9.9 2.1 1.4 3.3 1.4 1.2 0 2.4-.5 3.3-1.4l7-7c1.8-1.8 1.8-4.8 0-6.6-1.8-1.8-4.7-1.8-6.6 0zM202.6 242.7h-10c-2.6 0-4.6 2.1-4.6 4.6 0 2.6 2.1 4.7 4.6 4.7h10c2.6 0 4.6-2.1 4.6-4.7s-2.1-4.6-4.6-4.6zM232.4 242.7h-10c-2.6 0-4.7 2.1-4.7 4.6 0 2.6 2.1 4.7 4.7 4.7h10c2.6 0 4.7-2.1 4.7-4.7s-2.1-4.6-4.7-4.6zM172.7 242.7H168c-2.6 0-4.7 2.1-4.7 4.6 0 2.6 2.1 4.7 4.7 4.7h4.7c2.6 0 4.7-2.1 4.7-4.7-.1-2.6-2.1-4.6-4.7-4.6z"/><path class="st1" d="M40.1 275.3h207.2c1.2 0 2.4-.1 3.6-.4.5-.1.9-.2 1.4-.4l.6-.2c.5-.1 1-.3 1.6-.5.5-.2 1-.5 1.6-.8l.5-.3 1.2-.6c1-.7 2-1.5 2.8-2.3l18.1-18.1c1.8-1.8 1.8-4.8 0-6.6-1.8-1.8-4.8-1.8-6.6 0L254 263.3c-.4.4-.9.8-1.6 1.3l-.9.5c-.2.1-.4.2-.5.3-.1.1-.3.1-.5.1l-1.3.4c-.6.1-1.2.2-1.8.2H36.8l-7.1 5.7c-2 1.6-2.3 4.6-.7 6.6.9 1.1 2.3 1.7 3.6 1.7 1 0 2-.3 2.9-1l4.6-3.8zM258.8 206.7c-1.8-1.8-4.8-1.8-6.6 0l-12.6 12.6h-53c-2.6 0-4.7 2.1-4.7 4.6 0 2.6 2.1 4.7 4.7 4.7h56.8l15.4-15.4c1.9-1.7 1.9-4.7 0-6.5zM73.8 152l71.7 103.5 71.6-103.4c26.9-35.8 23-94.6-8.3-125.9C191.9 9.3 169.4 0 145.5 0S99.1 9.3 82.2 26.2C50.9 57.5 47.1 116.3 73.8 152zm72.5-96c18 0 32.7 14.6 32.7 32.6s-14.7 32.7-32.7 32.7c-18 0-32.7-14.7-32.7-32.7.1-17.9 14.7-32.6 32.7-32.6z"/></svg>
