<svg id="icon-contacts-2" xmlns="http://www.w3.org/2000/svg" viewBox="0 0 280 280"><style>.st0{fill:none;} .st1{fill:#CFCFCF;}</style><path class="st0" d="M302.8-114.5c-1.5.5-2.7 1.5-4.1 2-1.7.6-3.6 1.3-5.4 1.5-2.2.2-3.8-.9-4.3-3.1-.4-1.6-.6-3.3-.5-4.9.3-3.4 1-6.8 1.7-10.2 1.9-10.3 3.8-20.5 5.6-30.8.5-2.8 1-5.6.9-8.4-.1-3.4-2.1-4.9-5.5-4.9H264c-1.1 0-2.2 0-3.3.2-2 .4-3 1.4-3.2 3-.2 1.5.6 3 2.5 3.6 1.5.5 3.1.6 4.7.9 3.7.5 4.9 1.8 4.9 5.6 0 .6 0 1.2-.1 1.7-1.6 9-3.2 18-4.7 26.9-.9 5.2-1.7 10.4-2.4 15.5-1 7.6 6.2 14.7 12 15.5 3.4.5 7 .6 10.5.6 7.5-.1 13.7-3.3 19-8.6.9-.9 1.7-2.2 2-3.4.6-2-1.1-3.4-3.1-2.7zM285.5-179.6c7.7.1 14.2-6.4 14.3-14.4.1-8-6.3-14.5-14.2-14.5-8-.1-14.4 6.3-14.5 14.3-.1 8 6.4 14.6 14.4 14.6z"/><path class="st1" d="M73.6 137.3c7.4-7.4 7.4-16.2-.1-23.7-4.2-4.2-8.4-8.5-12.7-12.7L47.7 87.8c-7.2-7-16-7-23.2 0-5.4 5.4-10.7 10.9-16.2 16.1-5.1 4.9-7.7 10.8-8.3 17.8-.8 11.3 1.9 22 5.8 32.4 8 21.5 20.2 40.6 34.9 58.2 19.9 23.7 43.8 42.5 71.6 56 12.5 6.1 25.5 10.8 39.7 11.5 9.7.5 18.2-1.9 25-9.5 4.7-5.2 9.8-9.9 14.8-14.8 7.3-7.3 7.3-16.2.1-23.5-8.7-8.7-17.4-17.3-26.1-26-7.1-7-16-7-23.1 0-5.4 5.4-10.8 10.7-16.1 16.2-1.5 1.5-2.7 1.8-4.5.8-3.5-1.9-7.2-3.4-10.6-5.5-15.7-9.8-28.8-22.5-40.4-36.8-5.8-7.1-10.9-14.7-14.5-23.2-.7-1.7-.6-2.9.8-4.2 5.6-5.3 10.9-10.7 16.2-16z"/><path class="st1" d="M129.5 25.8C96.3 59 95.1 112 125.7 146.6l.9.8c-3.3 7.2-9.1 16.1-18.2 20.5-3 1.5-2.3 5.9 1 6.5 10 1.6 24.2-.2 37.5-10.2l.2.2c33.8 19.9 78 15.3 107-13.7 34.5-34.5 34.5-90.3.1-124.7-34.5-34.6-90.3-34.6-124.7-.2zm66.1 8c7.9.1 14.3 6.5 14.2 14.5-.1 8-6.5 14.4-14.3 14.4-8-.1-14.5-6.6-14.4-14.6 0-8 6.5-14.4 14.5-14.3zm20.4 96.9c-.3 1.2-1.1 2.5-2 3.4-5.2 5.3-11.5 8.4-19 8.6-3.5.1-7-.1-10.5-.6-5.8-.8-13-7.9-12-15.5.7-5.2 1.5-10.4 2.4-15.5 1.5-9 3.1-18 4.7-26.9.1-.6.1-1.2.1-1.7 0-3.8-1.2-5.1-4.9-5.6-1.6-.2-3.3-.3-4.7-.9-1.9-.6-2.7-2.1-2.5-3.6.2-1.6 1.2-2.6 3.2-3 1-.2 2.2-.2 3.3-.2h27.2c3.4 0 5.4 1.6 5.5 4.9.1 2.8-.4 5.6-.9 8.4-1.8 10.2-3.7 20.5-5.6 30.8-.6 3.4-1.3 6.8-1.7 10.2-.2 1.6.1 3.4.5 4.9.5 2.2 2.2 3.3 4.3 3.1 1.8-.2 3.6-.9 5.4-1.5 1.4-.5 2.6-1.5 4.1-2 1.9-1 3.6.5 3.1 2.7z"/></svg>
