<svg xmlns="http://www.w3.org/2000/svg" id="icon-about-2" viewBox="0 0 239.2 280" width="239.2" height="280"><style id="style3">.st0{fill:#fff;}</style><g id="g5" fill="#fff"><path class="st0" d="M239.2 87.5l-34.3-41.2-23.8 19.9c-10.6-7.1-22.4-12.3-35-15.6V31.8h19.1V0H87.1v31.8h21.8v15.3C48.2 51.1 0 101.6 0 163.4 0 227.7 52.3 280 116.6 280s116.7-52.3 116.7-116.6c0-21.1-5.7-40.9-15.6-57.9l21.5-18zM121.2 258v-27.4h-4.6v27.6c-24.7 0-47.2-9.6-64.1-25.1 2-1.3 3.4-3.5 3.4-6.1 0-4.1-3.4-7.4-7.4-7.4-2.4 0-4.5 1.2-5.8 3.1-13-16.3-20.9-36.8-20.9-59.2h23.6V159H22c1.1-23.1 10.4-44 25.1-59.9 1.4 1.6 3.4 2.7 5.6 2.7 4.1 0 7.4-3.3 7.4-7.4 0-2.1-.9-4-2.2-5.3 16.2-12.8 36.5-20.5 58.7-20.5v31.9h4.6V68.7c19.9.9 38.3 8 53.1 19.5-1 1.2-1.8 2.8-1.8 4.6 0 4.1 3.3 7.4 7.4 7.4 2.1 0 4-.9 5.3-2.3 15.2 16 24.9 37.3 26 60.8h-22.4v4.5h22.6c0 18.5-5.5 35.8-14.7 50.4-1.2-1-2.8-1.7-4.5-1.7-4.1 0-7.4 3.3-7.4 7.4 0 2.5 1.3 4.6 3.2 6-16.3 19.1-40.2 31.4-66.8 32.7zm0 0" id="path7"/><path class="st0" d="M122.5 94.3v36.6c15.7 2.8 27.8 16 28.8 32.2l36-5.9c-3.8-33.5-30.9-60-64.8-62.9zm0 0" id="path9"/></g></svg>
