<svg xmlns="http://www.w3.org/2000/svg" xmlns:xlink="http://www.w3.org/1999/xlink" id="icon-about-1" viewBox="0 0 257.20198 280" width="257.202" height="280"><style id="style3">.st0{clip-path:url(#SVGID_2_);fill:#fff;} .st1{fill:#fff;}</style><g id="g5" fill="#fff"><g id="g7" transform="matrix(1.0007 0 0 1.0007 -.02 0)"><defs id="defs9"><path id="SVGID_1_" d="M0 0h257.3v280H0z"/></defs><clipPath id="SVGID_2_"><use xlink:href="#SVGID_1_" id="use13" width="100%" height="100%" overflow="visible"/></clipPath><path class="st0" d="M257 62.1l-.4-8.8-8.7-.9c-33.5-3.4-62.3-15.9-80.6-25.8-20-10.8-32.1-21-32.2-21.1L128.5 0 122 5.5c-.1.1-12.2 10.3-32.2 21.1C71.5 36.5 42.7 49 9.2 52.4l-8.7.9-.4 8.8C0 63.7-1.4 101 13 146.3c8.5 26.7 20.8 50.6 36.4 71.1 19.7 25.7 44.8 46 74.7 60.3l4.4 2.1 4.4-2.1c29.9-14.3 55-34.5 74.7-60.3 15.7-20.5 28-44.4 36.5-71.1C258.4 101 257 63.7 257 62.1zM128.5 257.2c-24.9-12.7-46-30.1-62.7-51.8-14.3-18.5-25.4-40.3-33.3-64.6C23 111 20.8 84.5 20.4 71.5c13.4-2 27-5.4 40.5-10 13.2-4.6 26.3-10.4 39-17.3 12.9-7 22.7-13.7 28.6-18.1 5.9 4.4 15.7 11.1 28.6 18.1 12.7 6.9 25.8 12.7 39 17.3 13.5 4.7 27.1 8 40.5 10-.4 12.9-2.5 39.1-11.9 68.7-7.8 24.5-19 46.3-33.2 64.9-16.8 21.8-37.9 39.3-63 52.1zm0 0" id="path15" clip-path="url(#SVGID_2_)"/></g><path class="st1" d="M183.91 93.766l-14.11 14.11-52.738 52.736-26.72-26.718-3.6-3.603-7.206 7.206-7.205 7.205 44.732 44.733 81.257-81.257-14.41-14.41zm0 0" id="path17"/></g></svg>
