<svg xmlns="http://www.w3.org/2000/svg" id="icon-about-3" viewBox="0 0 281.4 280" width="281.4" height="280"><g fill="#fff"><path d="M214.4 73.7c0-40.7-33-73.7-73.7-73.7S67 33 67 73.7c0 58.3 73.7 144.6 73.7 144.6s73.7-86.6 73.7-144.6zm-110.1-4.4c0-20.1 16.3-36.3 36.3-36.3 20.1 0 36.4 16.3 36.4 36.3 0 20.1-16.3 36.4-36.4 36.4-20 0-36.3-16.3-36.3-36.4zm0 0"/><path d="M158.6 69.3c0 9.9-8 17.9-17.9 17.9-9.9 0-17.9-8-17.9-17.9 0-9.9 8-17.9 17.9-17.9 9.9 0 17.9 8 17.9 17.9zm0 0M182.4 192.7c-6 8.7-11.7 16.3-16.3 22.3 46.6 2.8 77.1 12.8 88.5 20.3-13.3 8.8-52.8 21.1-113.8 21.1-60.9 0-100.5-12.3-113.8-21.1 11.3-7.5 41.9-17.5 88.4-20.3-4.7-6.1-10.3-13.6-16.3-22.3C41.6 198.3 0 215.3 0 235.3 0 260 63 280 140.7 280c77.7 0 140.7-20 140.7-44.7 0-20-41.7-37-99-42.6zm0 0"/></g></svg>
