<svg id="icon-auto-info-2" xmlns="http://www.w3.org/2000/svg" viewBox="0 0 150 150" width="16px" height="16px"><g><path d="M75 0C33.6 0 0 33.6 0 75s33.6 75 75 75 75-33.6 75-75S116.4 0 75 0zm0 133.4c-32.2 0-58.4-26.2-58.4-58.4S42.8 16.6 75 16.6s58.4 26.2 58.4 58.4-26.2 58.4-58.4 58.4zm0 0"/><path d="M110.3 48.2c-2.6 0-4.7 2.1-4.7 4.7v17.8H91.5V52.9c0-2.6-2.1-4.7-4.7-4.7s-4.7 2.1-4.7 4.7v17.8H67.9V52.9c0-2.6-2.1-4.7-4.7-4.7s-4.7 2.1-4.7 4.7v17.8H44.4V52.9c0-2.6-2.1-4.7-4.7-4.7S35 50.3 35 52.9v20.5c0 4.6 2.8 6.6 5.4 6.6h18.1v17c0 2.6 2.1 4.7 4.7 4.7s4.7-2.1 4.7-4.7V80H82v17c0 2.6 2.1 4.7 4.7 4.7s4.7-2.1 4.7-4.7V80h14.1v17c0 2.6 2.1 4.7 4.7 4.7s4.7-2.1 4.7-4.7V52.9c.1-2.6-2-4.7-4.6-4.7zm0 0"/></g></svg>
