<svg id="icon-select-car-4" xmlns="http://www.w3.org/2000/svg" viewBox="0 0 150 40"><path d="M149.8 17.6c-.1-2.6-2.4-6.2-3.2-7.3.5-.8.8-1.5.5-2-.3-.5-.9-.5-1.2-.5-.4 0-.9.1-1.5.2-1.4.2-3.4.4-5 .1-3.4-.6-8-1-12.7-1-1.2 0-2.3 0-3.4.1-3.8.2-10.7-1.7-19.6-4l-3.3-.9C96.1 1 92.7.4 90.4.4c-1.2 0-1.9.2-2.3.3-.3-.1-.5-.1-.7-.1-1.3 0-1.8 1-2 1.9-.7 0-1.1.3-1.4.7-1.1-.1-1.5.6-1.6.7l-.1.1v6c-2.1.5-13.7 1.2-22.4 1.6.3-.2.5-.5.6-.8.5-1 .4-2 .2-2.6L70.3 4l.1-.3c0-.1.4-1.5-.5-2.6C69.3.4 68.3 0 67 0c-.4 0-.8 0-1.3.1-5 .7-25 10-26.8 10.8C15.1 11.9.4 24 .2 24.1l-.2.2V31l.1.1c2.9 3.7 13.8 5.4 23.8 5.8-.2-.2-.3-.4-.5-.6-.1-.2-.2-.4-.4-.6-1.2-2-2-4.4-2-6.9 0-7.4 6.1-13.4 13.5-13.4s13.6 6 13.6 13.4c0 2-.5 3.9-1.3 5.6l-.3.6c-.1.2-.2.4-.4.6 10.2-.5 30.5-.6 48.9-.6 6.6 0 13.1 0 18.9-.1l-.3-.6-.3-.6c-.7-1.7-1.2-3.6-1.2-5.6 0-7.9 6.4-14.2 14.4-14.2 7.9 0 14.4 6.4 14.4 14.2 0 1.5-.3 3-.7 4.4-.1.2-.2.5-.3.7-.1.2-.2.5-.3.7 3.1-.7 5.5-2 7.2-3.9 3.4-3.9 3-9 2.8-11.6.2-.3.2-.6.2-.8zm0 0"/><path d="M34.6 39.9c3.5 0 6.5-1.6 8.5-4 .2-.2.4-.4.5-.6.1-.2.3-.4.4-.6 1-1.7 1.7-3.7 1.7-5.8 0-6.1-5-11-11.1-11-6.2 0-11.2 4.9-11.2 11 0 2.7 1 5.1 2.6 7 .2.2.3.4.5.6.2.2.4.4.7.6 2 1.7 4.6 2.8 7.4 2.8zm0 0M116.6 34.3c.1.2.2.4.4.6 2.2 3.1 5.8 5.1 9.8 5.1 4.3 0 8-2.2 10.1-5.6.1-.2.2-.4.4-.7.1-.2.2-.4.4-.7.7-1.5 1.1-3.2 1.1-4.9 0-6.5-5.4-11.9-12-11.9s-12 5.3-12 11.9c0 2 .6 3.9 1.5 5.6l.3.6zm0 0"/></svg>
