<?xml version="1.0" standalone="no"?>
<!DOCTYPE svg PUBLIC "-//W3C//DTD SVG 20010904//EN"
 "http://www.w3.org/TR/2001/REC-SVG-20010904/DTD/svg10.dtd">
<svg version="1.0" xmlns="http://www.w3.org/2000/svg"
 width="300.000000pt" height="300.000000pt" viewBox="0 0 300.000000 300.000000"
 preserveAspectRatio="xMidYMid meet">
<metadata>
Created by potrace 1.11, written by Peter Selinger 2001-2013
</metadata>
<g transform="translate(0.000000,300.000000) scale(0.100000,-0.100000)"
fill="#000000" stroke="none">
<path d="M1405 2825 c-31 -30 -32 -73 -5 -108 19 -24 20 -29 6 -54 -8 -15 -25
-39 -38 -53 -90 -100 -192 -99 -296 1 l-42 41 20 25 c25 32 25 63 0 95 -24 31
-59 39 -98 22 -29 -12 -38 -26 -47 -73 -5 -25 32 -70 60 -74 33 -4 42 -15 50
-59 5 -24 9 -45 10 -48 0 -3 12 -50 24 -105 13 -55 27 -107 32 -116 7 -13 51
-15 375 -15 l367 1 33 120 c19 66 39 140 46 164 7 24 20 46 28 48 68 21 81 34
85 88 3 27 -48 75 -78 75 -39 0 -56 -10 -72 -41 -20 -38 -19 -65 4 -88 20 -20
19 -20 -19 -55 -48 -43 -112 -76 -157 -82 -68 -9 -155 54 -189 135 -8 20 -6
28 13 47 48 48 12 134 -57 134 -19 0 -40 -9 -55 -25z"/>
<path d="M370 2246 c0 -29 4 -35 28 -41 15 -3 35 -14 45 -22 16 -15 17 -73 17
-953 0 -890 -1 -938 -18 -953 -10 -9 -29 -18 -43 -20 -20 -3 -25 -10 -27 -41
l-3 -36 723 1 c533 0 747 4 813 13 481 69 784 382 841 866 7 61 7 286 0 335
-13 98 -18 124 -38 195 -55 205 -188 397 -352 509 -78 54 -220 119 -301 137
-178 41 -207 43 -957 44 l-728 0 0 -34z m1400 -318 c8 -3 38 -8 65 -13 260
-42 415 -221 450 -517 8 -68 9 -268 1 -335 -26 -221 -126 -388 -277 -462 -134
-65 -197 -73 -666 -78 l-421 -5 0 712 0 712 416 -5 c229 -2 424 -6 432 -9z"/>
</g>
</svg>
